# xmcd
#
# Track frame offsets:
#	150
#	20010
#	36383
#	56114
#	79378
#	100484
#	114667
#	136782
#	156766
#	172197
#	188042
#	202435
#	213752
#	229091
#	249043
#	259348
#	276554
#	290938
#
# Disc length: 4042 seconds
#
# Revision: 0
# Processed by: cddbd v1.4PL0 Copyright (c) Steve Scherf et al.
# Submitted via: dBpowerAMP V4.0
#
DISCID=1f0fc812
DTITLE=Various Artist - Oasis Blues Volume 6 Disk 2
DYEAR=2003
DGENRE=Blues
TTITLE0=Love Changes Things - Darrell Nulisch
TTITLE1=What I Like Best - Rockin' Highliners, The
TTITLE2=Sweet Honey Mead - Mark Schaefer
TTITLE3=Scraps of Memory - Pete Lancaster
TTITLE4=Approved But Not Funded - MuSicA
TTITLE5=River City Blues - Robbie Laws
TTITLE6=Dangerous Mood - Park House Jam
TTITLE7=Love Is A Gift - Beth Raebeck Hall
TTITLE8=Hold On - Robin O'Herin
TTITLE9=Why, Why, Why - Lori Bouck and the Interpreters
TTITLE10=Whiskey is... - Joe Burns
TTITLE11=She'll Be Swingin' - KingPins, The
TTITLE12=Backward Blues - Blue Radio
TTITLE13=Gotta Get Going - Liz Pennock and Dr Blues
TTITLE14=Daddy Like - Scooter and the Kickstands
TTITLE15=My Quarter's Up - Michael Zampi
TTITLE16=What a But-But - DC and Co
TTITLE17=Mystery Dance - Bruce Maki
EXTD=
EXTT0=
EXTT1=
EXTT2=
EXTT3=
EXTT4=
EXTT5=
EXTT6=
EXTT7=
EXTT8=
EXTT9=
EXTT10=
EXTT11=
EXTT12=
EXTT13=
EXTT14=
EXTT15=
EXTT16=
EXTT17=
PLAYORDER=
